<?xml version="1.0" encoding="utf-8"?>
<!-- Generator: Adobe Illustrator 27.8.1, SVG Export Plug-In . SVG Version: 6.00 Build 0)  -->
<svg version="1.1" id="Laag_1" xmlns="http://www.w3.org/2000/svg" xmlns:xlink="http://www.w3.org/1999/xlink" x="0px" y="0px"
	 viewBox="0 0 375 65.5" style="enable-background:new 0 0 375 65.5;" xml:space="preserve">
<style type="text/css">
	.st0{fill:#8C7158;}
</style>
<path class="st0" d="M322.8,57c22.7,0.7,41.1-3.2,52.2-6.1V-0.6c1.3,0.3-187.5,0-187.5,0c0.3,17.7,0.6,35.5,0.9,53.2
	c23.9-6.5,43-7.2,55.5-6.8C276.2,46.8,290.5,56.1,322.8,57z"/>
<path class="st0" d="M52.7,57C29.8,57.7,11.2,53.8,0,50.9V-0.6c-1.4,0.3,189.2,0,189.2,0c-0.3,17.7-0.6,35.5-0.9,53.2
	c-24.1-6.5-43.4-7.2-56-6.8C99.7,46.8,85.3,56.1,52.7,57z"/>
<path class="st0" d="M249.4-39.6"/>
</svg>
