<?xml version="1.0" encoding="utf-8"?>
<!-- Generator: Adobe Illustrator 27.8.1, SVG Export Plug-In . SVG Version: 6.00 Build 0)  -->
<svg version="1.1" id="Laag_1" xmlns="http://www.w3.org/2000/svg" xmlns:xlink="http://www.w3.org/1999/xlink" x="0px" y="0px"
	 viewBox="0 0 375 63.9" style="enable-background:new 0 0 375 63.9;" xml:space="preserve">
<style type="text/css">
	.st0{fill:#8C7158;}
</style>
<path class="st0" d="M52.2,9.3C29.5,8.7,11.1,12.5,0,15.5V67c-1.3-0.3,187.5,0,187.5,0c-0.3-17.7-0.6-35.5-0.9-53.2
	c-23.9,6.5-43,7.2-55.5,6.8C98.8,19.5,84.5,10.3,52.2,9.3z"/>
<path class="st0" d="M322.3,9.3c22.9-0.7,41.5,3.2,52.7,6.1V67c1.4-0.3-189.2,0-189.2,0c0.3-17.7,0.6-35.5,0.9-53.2
	c24.1,6.5,43.4,7.2,56,6.8C275.3,19.5,289.7,10.3,322.3,9.3z"/>
<path class="st0" d="M125.6,105.9"/>
</svg>
